<svg width="32" height="32" viewBox="0 0 32 32" fill="none" xmlns="http://www.w3.org/2000/svg">
<path d="M11.1983 1.0487L11.5177 2.73722M14.438 18.1718L11.5177 2.73722M11.5177 2.73722C16.4662 -0.491835 22.782 1.15645 25.2867 4.60706C27.7915 8.05766 32.1404 19.0208 21.6819 26.4614C11.2234 33.902 5.50582 31.0227 4.22245 26.1668C2.93908 21.3109 7.0729 8.31738 20.1704 5.63263C21.9907 5.42687 22.9277 5.6539 22.9196 7.64978C22.7293 9.44386 22.4779 10.457 21.9785 12.2224C21.1467 16.5401 19.6051 17.1389 19.2806 16.999C18.956 16.859 18.974 16.7712 19.138 16.4323C21.8622 10.4654 24.7406 8.57686 29 4.60706" stroke="#DEC9E1" stroke-width="1.5"/>
</svg>
